<?xml version="1.0" encoding="UTF-8"?>
<!-- Created with Inkscape (http://www.inkscape.org/) -->
<svg width="1200" height="1e3" version="1.1" viewBox="0 0 1200 1e3" xmlns="http://www.w3.org/2000/svg">
 <defs>
  <clipPath id="clipPath3">
   <path d="m0 1200h1200v-1200h-1200z"/>
  </clipPath>
  <clipPath id="clipPath5">
   <path transform="translate(-315.85 -341.85)" d="m0 1200h1200v-1200h-1200z"/>
  </clipPath>
  <clipPath id="clipPath7">
   <path d="m0 1200h1200v-1200h-1200z"/>
  </clipPath>
  <clipPath id="clipPath9">
   <path transform="translate(-407.64 -341.36)" d="m0 1200h1200v-1200h-1200z"/>
  </clipPath>
  <clipPath id="clipPath11">
   <path transform="translate(-496.89 -324.34)" d="m0 1200h1200v-1200h-1200z"/>
  </clipPath>
  <clipPath id="clipPath13">
   <path transform="translate(-528.13 -348.95)" d="m0 1200h1200v-1200h-1200z"/>
  </clipPath>
  <clipPath id="clipPath15">
   <path d="m0 1200h1200v-1200h-1200z"/>
  </clipPath>
  <clipPath id="clipPath17">
   <path transform="translate(-684.75 -349.24)" d="m0 1200h1200v-1200h-1200z"/>
  </clipPath>
  <clipPath id="clipPath19">
   <path transform="translate(-759.74 -341.85)" d="m0 1200h1200v-1200h-1200z"/>
  </clipPath>
  <clipPath id="clipPath21">
   <path transform="translate(-838.25 -324.34)" d="m0 1200h1200v-1200h-1200z"/>
  </clipPath>
  <clipPath id="clipPath23">
   <path transform="translate(-878.58 -341.36)" d="m0 1200h1200v-1200h-1200z"/>
  </clipPath>
  <clipPath id="clipPath25">
   <path transform="translate(-932.77 -348.95)" d="m0 1200h1200v-1200h-1200z"/>
  </clipPath>
  <linearGradient id="linearGradient26" x2="1" gradientTransform="matrix(0 334.34 -334.34 0 720.59 213.2)" gradientUnits="userSpaceOnUse">
   <stop stop-color="#657c96" offset="0"/>
   <stop stop-color="#0f1a29" offset="1"/>
  </linearGradient>
  <clipPath id="clipPath28">
   <path transform="translate(-714.31 -610.43)" d="m0 1200h1200v-1200h-1200z"/>
  </clipPath>
  <linearGradient id="linearGradient29" x2="1" gradientTransform="matrix(518.12 0 0 518.12 660.53 368.78)" gradientUnits="userSpaceOnUse">
   <stop stop-color="#657c96" offset="0"/>
   <stop stop-color="#354b65" offset="1"/>
  </linearGradient>
  <linearGradient id="linearGradient31" x2="1" gradientTransform="matrix(-185.7 307.69 -307.69 -185.7 862.32 93.217)" gradientUnits="userSpaceOnUse">
   <stop stop-color="#657c96" offset="0"/>
   <stop stop-color="#354b65" offset="1"/>
  </linearGradient>
  <linearGradient id="linearGradient33" x2="1" gradientTransform="matrix(62.803 -236.75 236.75 62.803 778.47 361.92)" gradientUnits="userSpaceOnUse">
   <stop stop-color="#172231" offset="0"/>
   <stop stop-color="#1a2d42" offset="1"/>
  </linearGradient>
  <linearGradient id="linearGradient35" x2="1" gradientTransform="matrix(3.6145 390.37 -390.37 3.6145 474.36 187.79)" gradientUnits="userSpaceOnUse">
   <stop stop-color="#657c96" offset="0"/>
   <stop stop-color="#0f1a29" offset="1"/>
  </linearGradient>
  <clipPath id="clipPath37">
   <path transform="translate(-485.69 -610.43)" d="m0 1200h1200v-1200h-1200z"/>
  </clipPath>
  <linearGradient id="linearGradient38" x2="1" gradientTransform="matrix(518.12 0 0 518.12 18.086 368.78)" gradientUnits="userSpaceOnUse">
   <stop stop-color="#657c96" offset="0"/>
   <stop stop-color="#354b65" offset="1"/>
  </linearGradient>
  <linearGradient id="linearGradient40" x2="1" gradientTransform="matrix(198.8 0 0 198.8 339.1 252.95)" gradientUnits="userSpaceOnUse">
   <stop stop-color="#657c96" offset="0"/>
   <stop stop-color="#354b65" offset="1"/>
  </linearGradient>
  <linearGradient id="linearGradient42" x2="1" gradientTransform="matrix(-77.713 -241.27 241.27 -77.713 421.49 373.39)" gradientUnits="userSpaceOnUse">
   <stop stop-color="#172231" offset="0"/>
   <stop stop-color="#1a2d42" offset="1"/>
  </linearGradient>
  <linearGradient id="linearGradient44" x2="1" gradientTransform="matrix(120.86 0 0 120.86 578.64 204.37)" gradientUnits="userSpaceOnUse">
   <stop stop-color="#657c96" offset="0"/>
   <stop stop-color="#354b65" offset="1"/>
  </linearGradient>
  <linearGradient id="linearGradient46" x2="1" gradientTransform="matrix(89.46 282.84 -282.84 89.46 515.96 450.29)" gradientUnits="userSpaceOnUse">
   <stop stop-color="#657c96" offset="0"/>
   <stop stop-color="#0f1a29" offset="1"/>
  </linearGradient>
  <linearGradient id="linearGradient48" x2="1" gradientTransform="matrix(-67.773 333.44 -333.44 -67.773 690.39 404.62)" gradientUnits="userSpaceOnUse">
   <stop stop-color="#657c96" offset="0"/>
   <stop stop-color="#0f1a29" offset="1"/>
  </linearGradient>
  <clipPath id="clipPath50">
   <path transform="translate(-622.65 -859.49)" d="m0 1200h1200v-1200h-1200z"/>
  </clipPath>
  <clipPath id="clipPath52">
   <path transform="translate(-675.85 -773.08)" d="m0 1200h1200v-1200h-1200z"/>
  </clipPath>
  <linearGradient id="linearGradient53" x2="1" gradientTransform="matrix(125.72 26.77 -26.77 125.72 682.23 624.42)" gradientUnits="userSpaceOnUse">
   <stop stop-color="#172231" offset="0"/>
   <stop stop-color="#1a2d42" offset="1"/>
  </linearGradient>
  <linearGradient id="linearGradient55" x2="1" gradientTransform="matrix(-110.13 53.879 -53.879 -110.13 537.52 618.15)" gradientUnits="userSpaceOnUse">
   <stop stop-color="#172231" offset="0"/>
   <stop stop-color="#1a2d42" offset="1"/>
  </linearGradient>
 </defs>
 <g fill="#fff">
  <path transform="matrix(1.3333 0 0 -1.3333 -201.63 1292.8)" d="m272.8 349.04h-38.67v-31.801h38.67zm-37.889 8.946h37.108c9.473 0 12.499-2.431 12.499-11.864v-26.451c0-9.433-3.026-11.864-12.499-11.864h-37.108c-9.473 0-12.5 2.431-12.5 11.864v26.451c0 9.433 3.027 11.864 12.5 11.864" clip-path="url(#clipPath3)"/>
  <path transform="matrix(1.3333 0 0 -1.3333 219.51 836.96)" d="m0 0v-11.379h22.949c3.028 0 4.59 0.584 4.59 3.307v4.765c0 2.724-1.562 3.307-4.59 3.307zm-9.96 7.099h37.206c6.641 0 9.667-2.238 9.667-7.974v-9.725c0-5.64-3.026-7.878-9.667-7.878h-5.664l19.628-15.559h-14.452l-17.284 15.559h-9.474v-15.559h-9.96z" clip-path="url(#clipPath5)"/>
  <path transform="matrix(1.3333 0 0 -1.3333 -201.63 1292.8)" d="m369.75 348.95h10.059v-41.136h-10.059z" clip-path="url(#clipPath7)"/>
  <path transform="matrix(1.3333 0 0 -1.3333 341.89 837.61)" d="m0 0v-25.673h31.445v8.751h-16.406v7.295h26.269v-14.199c0-7.682-2.539-9.725-10.742-9.725h-29.881c-8.204 0-10.743 2.043-10.743 9.725v21.686c0 7.781 2.637 9.725 10.743 9.725h29.881c7.812 0 10.742-1.847 10.742-9.238v-1.07l-9.863-1.654v4.377z" clip-path="url(#clipPath9)"/>
  <path transform="matrix(1.3333 0 0 -1.3333 460.89 860.3)" d="m0 0-9.667 17.116-9.278-17.116zm-13.964 24.604h9.667l24.901-41.136h-11.328l-5.175 9.044h-27.343l-5.175-9.044h-10.059z" clip-path="url(#clipPath11)"/>
  <path transform="matrix(1.3333 0 0 -1.3333 502.54 827.49)" d="m0 0h8.106l20.214-24.409 20.117 24.409h8.104v-41.136h-9.374v28.299l-18.457-23.339h-1.952l-18.652 22.659v-27.619h-8.106z" clip-path="url(#clipPath13)"/>
  <path transform="matrix(1.3333 0 0 -1.3333 -201.63 1292.8)" d="m603.42 348.95h10.059v-41.136h-10.059z" clip-path="url(#clipPath15)"/>
  <path transform="matrix(1.3333 0 0 -1.3333 711.37 827.1)" d="m0 0v-10.794h31.445c9.472 0 12.597-2.432 12.597-11.865v-6.904c0-9.433-3.125-11.865-12.597-11.865h-31.152c-9.472 0-12.597 2.432-12.597 11.865v1.361l10.351 2.14v-5.933h35.642v11.476h-31.443c-9.473 0-12.499 2.431-12.499 11.865v5.542c0 9.432 3.026 11.864 12.499 11.864h28.611c8.986 0 12.5-2.334 12.5-10.988v-1.071l-10.35-2.431v5.738z" clip-path="url(#clipPath17)"/>
  <path transform="matrix(1.3333 0 0 -1.3333 811.36 836.96)" d="m0 0v-10.893h22.949c3.028 0 4.589 0.585 4.589 3.307v4.279c0 2.724-1.561 3.307-4.589 3.307zm-9.961 7.099h37.206c6.642 0 9.668-2.139 9.668-7.974v-9.142c0-5.737-3.026-7.974-9.668-7.974h-27.245v-16.046h-9.961z" clip-path="url(#clipPath19)"/>
  <path transform="matrix(1.3333 0 0 -1.3333 916.04 860.3)" d="m0 0-9.667 17.116-9.278-17.116zm-13.964 24.604h9.667l24.901-41.136h-11.328l-5.174 9.044h-27.343l-5.176-9.044h-10.059z" clip-path="url(#clipPath21)"/>
  <path transform="matrix(1.3333 0 0 -1.3333 969.8 837.61)" d="m0 0v-25.673h27.148v8.751l10.157-2.041v-4.863c0-7.682-2.638-9.725-10.841-9.725h-25.779c-8.302 0-10.743 2.14-10.743 9.725v21.686c0 7.684 2.539 9.725 10.743 9.725h25.779c8.203 0 10.841-1.944 10.841-9.725v-3.987l-10.157-1.459v7.586z" clip-path="url(#clipPath23)"/>
  <path transform="matrix(1.3333 0 0 -1.3333 1042.1 827.49)" d="m0 0h44.334v-7.293h-34.178v-8.947h19.921v-7.099h-19.921v-10.115h34.667v-7.682h-44.823z" clip-path="url(#clipPath25)"/>
 </g>
 <path d="m604.09 762.82 95.071-170.11 137.92-32.08-197.9-144.35 3.3446-1.2589 3.713-1.3934 4.125-1.6411-25.037-187.13-21.236-17.695z" fill="url(#linearGradient26)"/>
 <path transform="matrix(1.3333 0 0 -1.3333 750.78 478.85)" d="m0 0 67.604-58.115 253.3 217.46z" clip-path="url(#clipPath28)" fill="#141f2d"/>
 <path d="m660.53 418.2 83.021 52.975 435.1-204.79z" fill="url(#linearGradient29)"/>
 <path d="m658.84 353.47 6.324 49.248 68.903-20.105 123.57-279.45z" fill="url(#linearGradient31)"/>
 <path d="m746.09 378.89 60.261-17.055 47.836-245.56z" fill="url(#linearGradient33)"/>
 <path d="m546.37 411.98 1.9986 0.83734 5.4835 2.1503 3.7006 1.3057-197.9 144.35 137.92 32.08 95.068 170.11v-560.93l-16.148-15.045z" fill="url(#linearGradient35)"/>
 <path transform="matrix(1.3333 0 0 -1.3333 445.96 478.85)" d="m0 0-67.603-58.115-253.3 217.46z" clip-path="url(#clipPath37)" fill="#141f2d"/>
 <path d="m453.19 471.17 83.021-52.975-518.12-151.81z" fill="url(#linearGradient38)"/>
 <path d="m462.67 382.62 68.901 20.105 6.3267-49.248-198.8-250.31z" fill="url(#linearGradient40)"/>
 <path d="m390.38 361.83 60.261 17.055-108.1-262.62z" fill="url(#linearGradient42)"/>
 <path d="m578.64 175.12 120.86 86.863-70.936-115.21z" fill="url(#linearGradient44)"/>
 <path d="m472.49 478.33 120.16 261.11v-136.56l-35.091-186.6z" fill="url(#linearGradient46)"/>
 <path d="m604.09 602.88v136.56l120.16-261.11-85.071-62.055z" fill="url(#linearGradient48)"/>
 <path transform="matrix(1.3333 0 0 -1.3333 628.57 146.77)" d="m0 0-8.684-20.078-28.76-1.186z" clip-path="url(#clipPath50)" fill="#95a9be"/>
 <path transform="matrix(1.3333 0 0 -1.3333 699.5 261.98)" d="m0 0-61.885 66.333-28.761-1.187z" clip-path="url(#clipPath52)" fill="#141f2d"/>
 <path d="m604.09 739.44v23.381l95.071-170.11 137.92-32.08-112.83-82.3z" fill="url(#linearGradient53)"/>
 <path d="m359.66 560.63 137.92 32.08 95.068 170.11v-23.381l-120.16-261.11z" fill="url(#linearGradient55)"/>
</svg>
